<svg xmlns="http://www.w3.org/2000/svg" width="361" height="16"><path fill-rule="evenodd" fill="#5380E8" d="M1283.716 14.26c-8.719 1.349-18.506 1.754-31.588.405l-115.42-12.557c-9.823-1.081-19.603-2.43-29.426-.944l-87.098 12.829c-8.72 1.349-20.706 2.021-31.589.404L873.139 1.841C862.256.759 850.277-.322 840.49 1.164l-87.135 12.829c-8.719 1.349-20.698 2.021-31.588.404L606.347 1.841c-9.816-1.082-21.802-2.163-32.685-.677l-95.68 13.962c-6.839.55-14.535.51-23.958-.461L338.596 2.108c-9.815-1.081-19.602-2.43-29.425-.944l-87.099 12.829c-8.719 1.349-20.698 2.021-31.581.404L75.028 1.841C64.145.759 52.166-.322 42.379 1.164l-87.135 12.829c-8.719 1.349-20.698 2.021-31.581.404L-191.765 1.841c-9.815-1.082-21.802-2.163-32.684-.677L-365.998 21.82v7.831l74.06-10.934c9.779-1.486 23.921-.272 32.648.673l115.456 12.555c11.979 1.354 21.766.813 30.485-.404l88.202-12.824c8.72-1.349 23.959-.272 31.582.673l115.427 12.555c13.076 1.354 22.862.946 31.581-.404l87.135-12.824c9.787-1.486 23.966-.272 32.649.673L388.69 31.945c11.98 1.354 21.766.813 30.485-.404l91.992-13.232c9.214-.603 20.278.285 27.647 1.081l115.463 12.555c11.979 1.354 21.766.813 30.485-.404l88.196-12.824c8.719-1.349 23.965-.272 31.588.673l115.42 12.555c13.083 1.354 22.869.946 31.588-.404l87.135-12.824c9.78-1.486 23.966-.272 32.649.673l115.457 12.555c11.986 1.354 21.765.813 30.484-.404l142.653-20.519V3.326l-76.216 10.934z" filter="url(#a)"/></svg>